<svg width="16" height="19" viewBox="0 0 16 19" fill="none" xmlns="http://www.w3.org/2000/svg">
<path d="M1.66933 1.33333C1.58093 1.33333 1.49614 1.36845 1.43363 1.43096C1.37112 1.49348 1.336 1.57826 1.336 1.66667L1.33333 13C1.33333 13.184 1.48267 13.3333 1.66667 13.3333H4V14.6667H1.66667C0.746667 14.6667 0 13.92 0 13L0.00266679 1.66667C0.00266679 0.746667 0.749334 0 1.66933 0H7.67333C8.59333 0 9.34 0.746667 9.34 1.668L9.33733 4.33333C9.33733 4.51733 9.48533 4.66667 9.67067 4.66667H10.3333C10.7638 4.66631 11.1778 4.83254 11.4884 5.13054C11.7991 5.42854 11.9824 5.8352 12 6.26533C11.3867 5.91201 10.6583 5.81657 9.97467 6H9.67067C9.45168 6 9.23485 5.95685 9.03255 5.873C8.83026 5.78916 8.64647 5.66628 8.49168 5.51137C8.3369 5.35647 8.21416 5.17258 8.13048 4.97022C8.04681 4.76785 8.00383 4.55098 8.004 4.332L8.00667 1.66667C8.00667 1.57826 7.97155 1.49348 7.90904 1.43096C7.84652 1.36845 7.76174 1.33333 7.67333 1.33333H1.66933ZM11.5747 7.6C11.328 7.37096 11.0039 7.24366 10.6673 7.24366C10.3308 7.24366 10.0066 7.37096 9.76 7.6L5.97333 11.116C5.77144 11.3032 5.61038 11.5302 5.50025 11.7825C5.39013 12.0349 5.3333 12.3073 5.33333 12.5827V17.3333C5.33333 17.687 5.47381 18.0261 5.72386 18.2761C5.97391 18.5262 6.31305 18.6667 6.66667 18.6667H8.66667C9.02029 18.6667 9.35943 18.5262 9.60948 18.2761C9.85952 18.0261 10 17.687 10 17.3333V16H11.3333V17.3333C11.3333 17.687 11.4738 18.0261 11.7239 18.2761C11.9739 18.5262 12.313 18.6667 12.6667 18.6667H14.6667C15.0203 18.6667 15.3594 18.5262 15.6095 18.2761C15.8595 18.0261 16 17.687 16 17.3333V12.5813C16 12.306 15.9432 12.0336 15.8331 11.7812C15.723 11.5288 15.5619 11.3019 15.36 11.1147L11.5747 7.6ZM6.88 12.0933L10.6667 8.576L14.4533 12.0933C14.5205 12.1556 14.5741 12.2311 14.6108 12.3151C14.6476 12.3991 14.6666 12.4897 14.6667 12.5813V17.3333H12.6667V16C12.6667 15.6464 12.5262 15.3072 12.2761 15.0572C12.0261 14.8071 11.687 14.6667 11.3333 14.6667H10C9.64638 14.6667 9.30724 14.8071 9.05719 15.0572C8.80714 15.3072 8.66667 15.6464 8.66667 16V17.3333H6.66667V12.5813C6.66678 12.4897 6.68578 12.3991 6.72248 12.3151C6.75919 12.2311 6.81281 12.1556 6.88 12.0933ZM4 3.33333C4 3.51014 3.92976 3.67971 3.80474 3.80474C3.67971 3.92976 3.51014 4 3.33333 4C3.15652 4 2.98695 3.92976 2.86193 3.80474C2.7369 3.67971 2.66667 3.51014 2.66667 3.33333C2.66667 3.15652 2.7369 2.98695 2.86193 2.86193C2.98695 2.7369 3.15652 2.66667 3.33333 2.66667C3.51014 2.66667 3.67971 2.7369 3.80474 2.86193C3.92976 2.98695 4 3.15652 4 3.33333ZM3.33333 6.66667C3.51014 6.66667 3.67971 6.59643 3.80474 6.4714C3.92976 6.34638 4 6.17681 4 6C4 5.82319 3.92976 5.65362 3.80474 5.5286C3.67971 5.40357 3.51014 5.33333 3.33333 5.33333C3.15652 5.33333 2.98695 5.40357 2.86193 5.5286C2.7369 5.65362 2.66667 5.82319 2.66667 6C2.66667 6.17681 2.7369 6.34638 2.86193 6.4714C2.98695 6.59643 3.15652 6.66667 3.33333 6.66667ZM4 8.66667C4 8.84348 3.92976 9.01305 3.80474 9.13807C3.67971 9.26309 3.51014 9.33333 3.33333 9.33333C3.15652 9.33333 2.98695 9.26309 2.86193 9.13807C2.7369 9.01305 2.66667 8.84348 2.66667 8.66667C2.66667 8.48985 2.7369 8.32029 2.86193 8.19526C2.98695 8.07024 3.15652 8 3.33333 8C3.51014 8 3.67971 8.07024 3.80474 8.19526C3.92976 8.32029 4 8.48985 4 8.66667ZM6 4C6.17681 4 6.34638 3.92976 6.4714 3.80474C6.59643 3.67971 6.66667 3.51014 6.66667 3.33333C6.66667 3.15652 6.59643 2.98695 6.4714 2.86193C6.34638 2.7369 6.17681 2.66667 6 2.66667C5.82319 2.66667 5.65362 2.7369 5.5286 2.86193C5.40357 2.98695 5.33333 3.15652 5.33333 3.33333C5.33333 3.51014 5.40357 3.67971 5.5286 3.80474C5.65362 3.92976 5.82319 4 6 4ZM6.66667 6C6.66667 6.17681 6.59643 6.34638 6.4714 6.4714C6.34638 6.59643 6.17681 6.66667 6 6.66667C5.82319 6.66667 5.65362 6.59643 5.5286 6.4714C5.40357 6.34638 5.33333 6.17681 5.33333 6C5.33333 5.82319 5.40357 5.65362 5.5286 5.5286C5.65362 5.40357 5.82319 5.33333 6 5.33333C6.17681 5.33333 6.34638 5.40357 6.4714 5.5286C6.59643 5.65362 6.66667 5.82319 6.66667 6ZM6 9.33333C6.17681 9.33333 6.34638 9.26309 6.4714 9.13807C6.59643 9.01305 6.66667 8.84348 6.66667 8.66667C6.66667 8.48985 6.59643 8.32029 6.4714 8.19526C6.34638 8.07024 6.17681 8 6 8C5.82319 8 5.65362 8.07024 5.5286 8.19526C5.40357 8.32029 5.33333 8.48985 5.33333 8.66667C5.33333 8.84348 5.40357 9.01305 5.5286 9.13807C5.65362 9.26309 5.82319 9.33333 6 9.33333Z" fill="#344563"/>
</svg>
