<svg width="20" height="20" viewBox="0 0 20 20" fill="none" xmlns="http://www.w3.org/2000/svg">
<path d="M12.2416 0.359863V2.33883H4.74965V3.65815H12.2416V5.63712L15.2384 2.99849L12.2416 0.359863ZM3.8272 4.97334C2.98904 5.06816 2.22861 5.92984 2.22861 7.05125C2.22861 7.66144 2.47209 8.20565 2.82983 8.58496L3.25126 9.03022L2.59852 9.13742C2.13964 9.21987 1.8025 9.43014 1.51219 9.78058C1.22188 10.131 1.0018 10.6175 0.847279 11.1782C0.566331 12.1925 0.505459 13.4334 0.496094 14.5301H2.02726L2.44868 19.4981C3.51816 19.7125 4.656 19.7043 5.68614 19.4981L6.05605 14.5301H7.51698C7.51698 13.4211 7.49825 12.1636 7.2454 11.137C7.10493 10.5763 6.89421 10.0898 6.59922 9.74348C6.30891 9.39716 5.95304 9.18689 5.43797 9.11268L4.76837 9.02198L5.19448 8.56022C5.53162 8.18504 5.76106 7.64907 5.76106 7.05125C5.76106 5.85563 4.91353 4.97746 4.00045 4.97746L3.8272 4.97334ZM15.8143 4.97334C14.9761 5.06816 14.2176 5.92984 14.2176 7.05125C14.2176 7.66144 14.4611 8.20565 14.8169 8.58496L15.2384 9.03022L14.5875 9.13742C14.1286 9.21987 13.7915 9.43014 13.5012 9.78058C13.2109 10.131 12.9908 10.6175 12.8363 11.1782C12.5553 12.1925 12.4944 13.4334 12.4851 14.5301H14.0162L14.4377 19.4981C15.5053 19.7125 16.6431 19.7043 17.6732 19.4981L18.0432 14.5301H19.5041C19.5041 13.4211 19.4854 12.1636 19.2325 11.137C19.092 10.5763 18.8813 10.0898 18.5863 9.74348C18.296 9.39716 17.9402 9.18689 17.4251 9.11268L16.7555 9.02198L17.1816 8.56022C17.5187 8.18504 17.7482 7.64907 17.7482 7.05125C17.7482 5.85563 16.9006 4.97746 15.9876 4.97746L15.8143 4.97334Z" fill="url(#paint0_linear_13538_54125)"/>
<defs>
<linearGradient id="paint0_linear_13538_54125" x1="0.496094" y1="19.6559" x2="19.363" y2="5.52504" gradientUnits="userSpaceOnUse">
<stop offset="0.386529" stop-color="#057EC9"/>
<stop offset="0.910093" stop-color="#0160AE"/>
</linearGradient>
</defs>
</svg>
