<svg width="24" height="24" viewBox="0 0 24 24" fill="none" xmlns="http://www.w3.org/2000/svg">
<path d="M21.75 18.75H20.25V17.25H21V14.25H18V15H16.5V13.5C16.5 13.3011 16.579 13.1103 16.7197 12.9697C16.8603 12.829 17.0511 12.75 17.25 12.75H21.75C21.9489 12.75 22.1397 12.829 22.2803 12.9697C22.421 13.1103 22.5 13.3011 22.5 13.5V18C22.5 18.1989 22.421 18.3897 22.2803 18.5303C22.1397 18.671 21.9489 18.75 21.75 18.75Z" fill="#344563"/>
<path d="M18 22.4997H13.5C13.3011 22.4997 13.1103 22.4207 12.9697 22.28C12.829 22.1394 12.75 21.9486 12.75 21.7497V17.2497C12.75 17.0508 12.829 16.86 12.9697 16.7193C13.1103 16.5787 13.3011 16.4997 13.5 16.4997H18C18.1989 16.4997 18.3897 16.5787 18.5303 16.7193C18.671 16.86 18.75 17.0508 18.75 17.2497V21.7497C18.75 21.9486 18.671 22.1394 18.5303 22.28C18.3897 22.4207 18.1989 22.4997 18 22.4997ZM14.25 20.9997H17.25V17.9997H14.25V20.9997ZM11.25 14.8932C10.7081 14.7519 10.2166 14.4616 9.83142 14.0551C9.44623 13.6486 9.18274 13.1422 9.07086 12.5935C8.95899 12.0447 9.00322 11.4756 9.19853 10.9508C9.39385 10.4259 9.73242 9.96634 10.1758 9.62424C10.6192 9.28213 11.1496 9.07119 11.7068 9.01539C12.2641 8.95958 12.8258 9.06114 13.3282 9.30853C13.8306 9.55592 14.2536 9.93922 14.5491 10.4149C14.8446 10.8906 15.0008 11.4397 15 11.9997H16.5C16.5009 11.1415 16.2563 10.301 15.7953 9.57728C15.3342 8.85352 14.6758 8.2767 13.8977 7.91481C13.1195 7.55293 12.2542 7.42108 11.4036 7.53482C10.553 7.64855 9.75271 8.00312 9.097 8.55672C8.4413 9.11032 7.95757 9.83986 7.70283 10.6593C7.4481 11.4788 7.43299 12.354 7.65928 13.1818C7.88558 14.0096 8.34384 14.7554 8.98005 15.3313C9.61625 15.9072 10.4039 16.2892 11.25 16.4322V14.8932Z" fill="#344563"/>
<path d="M21.6675 10.1625L19.935 11.685L18.87 10.62L20.6775 9.03L18.9075 5.97L16.3275 6.84C15.7232 6.33695 15.0387 5.93892 14.3025 5.6625L13.77 3H10.23L9.69755 5.6625C8.9555 5.93119 8.26725 6.32992 7.66505 6.84L5.09255 5.97L3.32255 9.03L5.36255 10.8225C5.22379 11.5988 5.22379 12.3937 5.36255 13.17L3.32255 14.97L5.09255 18.03L7.67255 17.16C8.2769 17.663 8.96141 18.0611 9.69755 18.3375L10.23 21H11.25V22.5H10.23C9.8832 22.4997 9.54716 22.3792 9.27914 22.1591C9.01112 21.9389 8.82768 21.6327 8.76005 21.2925L8.37755 19.4025C8.03799 19.2369 7.70977 19.049 7.39505 18.84L5.57255 19.455C5.41757 19.5054 5.25552 19.5308 5.09255 19.53C4.82909 19.5318 4.56993 19.4633 4.34183 19.3314C4.11373 19.1996 3.92497 19.0092 3.79505 18.78L2.02505 15.72C1.84999 15.4193 1.78494 15.067 1.84103 14.7236C1.89713 14.3801 2.07089 14.0669 2.33255 13.8375L3.77255 12.5775C3.75755 12.3825 3.75005 12.195 3.75005 12C3.75005 11.805 3.76505 11.6175 3.78005 11.43L2.33255 10.1625C2.07089 9.93309 1.89713 9.61985 1.84103 9.27642C1.78494 8.93299 1.84999 8.58074 2.02505 8.28L3.79505 5.22C3.92497 4.9908 4.11373 4.80044 4.34183 4.66859C4.56993 4.53675 4.82909 4.46819 5.09255 4.47C5.25552 4.46925 5.41757 4.49457 5.57255 4.545L7.38755 5.16C7.70484 4.95098 8.03556 4.76307 8.37755 4.5975L8.76005 2.7075C8.82768 2.36731 9.01112 2.06107 9.27914 1.84091C9.54716 1.62075 9.8832 1.50028 10.23 1.5H13.77C14.1169 1.50028 14.4529 1.62075 14.721 1.84091C14.989 2.06107 15.1724 2.36731 15.24 2.7075L15.6225 4.5975C15.9621 4.76311 16.2903 4.95102 16.605 5.16L18.4275 4.545C18.5825 4.49457 18.7446 4.46925 18.9075 4.47C19.171 4.46819 19.4302 4.53675 19.6583 4.66859C19.8864 4.80044 20.0751 4.9908 20.205 5.22L21.975 8.28C22.1501 8.58074 22.2152 8.93299 22.1591 9.27642C22.103 9.61985 21.9292 9.93309 21.6675 10.1625Z" fill="#344563"/>
</svg>
