<svg width="20" height="24" viewBox="0 0 20 24" fill="none" xmlns="http://www.w3.org/2000/svg">
<path d="M2.08667 1.99967C1.97616 1.99967 1.87018 2.04357 1.79204 2.12171C1.7139 2.19985 1.67 2.30583 1.67 2.41634L1.66667 16.583C1.66667 16.813 1.85333 16.9997 2.08333 16.9997H5V18.6663H2.08333C0.933333 18.6663 0 17.733 0 16.583L0.00333349 2.41634C0.00333349 1.26634 0.936667 0.333008 2.08667 0.333008H9.59167C10.7417 0.333008 11.675 1.26634 11.675 2.41801L11.6717 5.74967C11.6717 5.97967 11.8567 6.16634 12.0883 6.16634H12.9167C13.4548 6.16589 13.9722 6.37368 14.3605 6.74618C14.7489 7.11869 14.978 7.627 15 8.16467C14.2334 7.72302 13.3228 7.60372 12.4683 7.83301H12.0883C11.8146 7.83301 11.5436 7.77907 11.2907 7.67426C11.0378 7.56946 10.8081 7.41586 10.6146 7.22222C10.4211 7.02859 10.2677 6.79873 10.1631 6.54578C10.0585 6.29282 10.0048 6.02174 10.005 5.74801L10.0083 2.41634C10.0083 2.30583 9.96443 2.19985 9.88629 2.12171C9.80815 2.04357 9.70217 1.99967 9.59167 1.99967H2.08667ZM14.4683 9.83301C14.16 9.5467 13.7549 9.38759 13.3342 9.38759C12.9134 9.38759 12.5083 9.5467 12.2 9.83301L7.46667 14.228C7.2143 14.4621 7.01298 14.7457 6.87532 15.0612C6.73766 15.3766 6.66663 15.7171 6.66667 16.0613V21.9997C6.66667 22.4417 6.84226 22.8656 7.15482 23.1782C7.46738 23.4907 7.89131 23.6663 8.33333 23.6663H10.8333C11.2754 23.6663 11.6993 23.4907 12.0118 23.1782C12.3244 22.8656 12.5 22.4417 12.5 21.9997V20.333H14.1667V21.9997C14.1667 22.4417 14.3423 22.8656 14.6548 23.1782C14.9674 23.4907 15.3913 23.6663 15.8333 23.6663H18.3333C18.7754 23.6663 19.1993 23.4907 19.5118 23.1782C19.8244 22.8656 20 22.4417 20 21.9997V16.0597C20 15.7155 19.929 15.375 19.7913 15.0595C19.6537 14.744 19.4524 14.4604 19.2 14.2263L14.4683 9.83301ZM8.6 15.4497L13.3333 11.053L18.0667 15.4497C18.1507 15.5276 18.2177 15.6219 18.2636 15.7269C18.3094 15.8318 18.3332 15.9451 18.3333 16.0597V21.9997H15.8333V20.333C15.8333 19.891 15.6577 19.4671 15.3452 19.1545C15.0326 18.8419 14.6087 18.6663 14.1667 18.6663H12.5C12.058 18.6663 11.634 18.8419 11.3215 19.1545C11.0089 19.4671 10.8333 19.891 10.8333 20.333V21.9997H8.33333V16.0597C8.33347 15.9451 8.35722 15.8318 8.40311 15.7269C8.44899 15.6219 8.51601 15.5276 8.6 15.4497ZM5 4.49967C5 4.72069 4.9122 4.93265 4.75592 5.08893C4.59964 5.24521 4.38768 5.33301 4.16667 5.33301C3.94565 5.33301 3.73369 5.24521 3.57741 5.08893C3.42113 4.93265 3.33333 4.72069 3.33333 4.49967C3.33333 4.27866 3.42113 4.0667 3.57741 3.91042C3.73369 3.75414 3.94565 3.66634 4.16667 3.66634C4.38768 3.66634 4.59964 3.75414 4.75592 3.91042C4.9122 4.0667 5 4.27866 5 4.49967ZM4.16667 8.66634C4.38768 8.66634 4.59964 8.57854 4.75592 8.42226C4.9122 8.26598 5 8.05402 5 7.83301C5 7.61199 4.9122 7.40003 4.75592 7.24375C4.59964 7.08747 4.38768 6.99967 4.16667 6.99967C3.94565 6.99967 3.73369 7.08747 3.57741 7.24375C3.42113 7.40003 3.33333 7.61199 3.33333 7.83301C3.33333 8.05402 3.42113 8.26598 3.57741 8.42226C3.73369 8.57854 3.94565 8.66634 4.16667 8.66634ZM5 11.1663C5 11.3874 4.9122 11.5993 4.75592 11.7556C4.59964 11.9119 4.38768 11.9997 4.16667 11.9997C3.94565 11.9997 3.73369 11.9119 3.57741 11.7556C3.42113 11.5993 3.33333 11.3874 3.33333 11.1663C3.33333 10.9453 3.42113 10.7334 3.57741 10.5771C3.73369 10.4208 3.94565 10.333 4.16667 10.333C4.38768 10.333 4.59964 10.4208 4.75592 10.5771C4.9122 10.7334 5 10.9453 5 11.1663ZM7.5 5.33301C7.72101 5.33301 7.93297 5.24521 8.08926 5.08893C8.24554 4.93265 8.33333 4.72069 8.33333 4.49967C8.33333 4.27866 8.24554 4.0667 8.08926 3.91042C7.93297 3.75414 7.72101 3.66634 7.5 3.66634C7.27899 3.66634 7.06702 3.75414 6.91074 3.91042C6.75446 4.0667 6.66667 4.27866 6.66667 4.49967C6.66667 4.72069 6.75446 4.93265 6.91074 5.08893C7.06702 5.24521 7.27899 5.33301 7.5 5.33301ZM8.33333 7.83301C8.33333 8.05402 8.24554 8.26598 8.08926 8.42226C7.93297 8.57854 7.72101 8.66634 7.5 8.66634C7.27899 8.66634 7.06702 8.57854 6.91074 8.42226C6.75446 8.26598 6.66667 8.05402 6.66667 7.83301C6.66667 7.61199 6.75446 7.40003 6.91074 7.24375C7.06702 7.08747 7.27899 6.99967 7.5 6.99967C7.72101 6.99967 7.93297 7.08747 8.08926 7.24375C8.24554 7.40003 8.33333 7.61199 8.33333 7.83301ZM7.5 11.9997C7.72101 11.9997 7.93297 11.9119 8.08926 11.7556C8.24554 11.5993 8.33333 11.3874 8.33333 11.1663C8.33333 10.9453 8.24554 10.7334 8.08926 10.5771C7.93297 10.4208 7.72101 10.333 7.5 10.333C7.27899 10.333 7.06702 10.4208 6.91074 10.5771C6.75446 10.7334 6.66667 10.9453 6.66667 11.1663C6.66667 11.3874 6.75446 11.5993 6.91074 11.7556C7.06702 11.9119 7.27899 11.9997 7.5 11.9997Z" fill="#344563"/>
</svg>
